<svg xmlns="http://www.w3.org/2000/svg" viewBox="0 0 793.7 141.73"><path fillColor="currentColor" d="M144.39 76c0 12.64-8.26 21.06-20.25 21.06S103.89 88.63 103.89 76s8.26-21.06 20.25-21.06 20.25 8.42 20.25 21.06m19.76 37.42V38.58h-19.76v10.53h-.32c-4.7-7.78-12.8-13-24.95-13-19.6 0-36 14.26-36 39.85s16.36 39.85 36 39.85c12.15 0 20.25-5.18 24.95-13h.32v10.53zM233.37 76c0 12.64-8.26 21.06-20.25 21.06S192.87 88.63 192.87 76s8.26-21.06 20.25-21.06 20.25 8.42 20.25 21.06m19.76 37.42V0h-19.76v49.11H233c-4.7-7.78-12.8-13-24.95-13-19.6 0-36 14.26-36 39.85s16.36 39.85 36 39.85c12.15 0 20.25-5.18 24.95-13h.32v10.53zM265.58 0h19.92v19.92h-19.92zM265.58 38.58h19.93v74.84h-19.93zM355.39 76c0 12.8-8.75 21.06-20.9 21.06S313.43 88.8 313.43 76s8.91-21.06 21.06-21.06 20.9 8.26 20.9 21.06M376 76c0-23.49-17.66-39.85-41.47-39.85S293 52.51 293 76s17.66 39.85 41.47 39.85S376 99.49 376 76M443.75 76c0 12.64-8.26 21.06-20.25 21.06S403.25 88.64 403.25 76s8.26-21.06 20.25-21.06 20.25 8.42 20.25 21.06m20.74 0c0-25.6-16.36-39.85-36-39.85-12.15 0-20.25 5.18-24.95 13h-.32V38.58h-19.73v103.15h19.76v-38.84h.32c4.7 7.78 12.8 13 24.95 13 19.6 0 36-14.26 36-39.85M472.93.02h19.93v113.4h-19.93zM562.42 76c0 12.64-8.26 21.06-20.25 21.06S521.92 88.63 521.92 76s8.26-21.06 20.25-21.06 20.25 8.42 20.25 21.06m19.76 37.42V38.58h-19.76v10.53h-.32c-4.7-7.78-12.8-13-24.95-13-19.6 0-36 14.26-36 39.85s16.36 39.85 36 39.85c12.15 0 20.25-5.18 24.95-13h.32v10.53zM647.81 38.58l-19.44 45.36-18.96-45.36h-23.33l32.4 67.88-16.4 35.28h20.5L668.7 38.58h-20.89zM719.91 67.25h-35.32c1.62-10.37 8.59-15.07 18.14-15.07 9.72 0 16.52 5.51 17.17 15.07M740 80v-3.84c0-25.6-13.61-40-36.29-40-23.49 0-38.88 16.2-38.88 40s15.88 39.69 40.34 39.69c15.71 0 25.76-7.29 32.4-13.45L727.52 88c-4.21 4.21-11.66 10.21-22.36 10.21-11.5 0-19.93-6.64-21.06-18.14zM793.7 36.31h-.81c-12.31 0-20.9 6.48-24.79 18.14h-.32V38.58h-19.6v74.84h19.76V82.8c0-18.31 7.61-25.11 23.49-25.11h2.27z"/><path class="cls-1" d="M23.62 70.87V0H0v113.39h23.62zm52-35.43l-9.45 6.45V29zM59.05 46.71L52 51.54V19.33l7.09 4.84zm-14.17 9.66L37.8 61.2V9.66l7.09 4.84zM85 35.44A35.44 35.44 0 0 0 49.61 0h-26l7.09 4.84V66l-7.09 4.83 33 42.52H85L49.82 70.87h-.21A35.43 35.43 0 0 0 85 35.44"/></svg>