<svg width="112" height="40" xmlns="http://www.w3.org/2000/svg"><path d="M20.374 20.724c0-1.783-1.165-2.971-2.857-2.971-1.692 0-2.858 1.188-2.858 2.971 0 1.784 1.166 2.972 2.858 2.972 1.692 0 2.857-1.188 2.857-2.972zm2.79 5.281h-2.79v-1.486h-.045c-.663 1.097-1.806 1.829-3.52 1.829-2.767 0-5.076-2.012-5.076-5.624 0-3.611 2.31-5.623 5.075-5.623 1.715 0 2.858.731 3.52 1.829h.046v-1.486h2.79v10.561zm9.767-5.28c0-1.784-1.166-2.972-2.857-2.972-1.692 0-2.858 1.188-2.858 2.971 0 1.784 1.166 2.972 2.858 2.972 1.691 0 2.857-1.188 2.857-2.972zm2.79 5.28h-2.79v-1.486h-.045c-.663 1.097-1.806 1.829-3.52 1.829-2.767 0-5.076-2.012-5.076-5.624 0-3.611 2.309-5.623 5.075-5.623 1.715 0 2.858.731 3.52 1.829h.046v-6.927h2.79v16.002zm1.755-13.193v-2.811h2.811v2.811h-2.811zm0 13.193V15.444h2.811v10.56h-2.811zm12.673-5.28c0-1.806-1.234-2.972-2.949-2.972-1.714 0-2.972 1.166-2.972 2.971 0 1.806 1.258 2.972 2.972 2.972 1.715 0 2.949-1.166 2.949-2.972zm2.903 0c0 3.314-2.491 5.623-5.852 5.623-3.36 0-5.852-2.309-5.852-5.624 0-3.314 2.492-5.623 5.852-5.623 3.36 0 5.852 2.309 5.852 5.623zm9.567 0c0-1.784-1.166-2.972-2.858-2.972-1.691 0-2.857 1.188-2.857 2.971 0 1.784 1.166 2.972 2.857 2.972 1.692 0 2.858-1.188 2.858-2.972zm2.926 0c0 3.611-2.309 5.623-5.075 5.623-1.714 0-2.857-.732-3.52-1.829h-.046V30h-2.789V15.445h2.789v1.486h.046c.663-1.098 1.806-1.83 3.52-1.83 2.766 0 5.075 2.013 5.075 5.624zm1.19 5.28V10.003h2.813v16.002h-2.812zm12.628-5.28c0-1.784-1.166-2.972-2.857-2.972-1.692 0-2.858 1.188-2.858 2.971 0 1.784 1.166 2.972 2.858 2.972 1.691 0 2.857-1.188 2.857-2.972zm2.79 5.28h-2.79v-1.486h-.045c-.663 1.097-1.806 1.829-3.52 1.829-2.767 0-5.076-2.012-5.076-5.624 0-3.611 2.31-5.623 5.075-5.623 1.715 0 2.858.731 3.52 1.829h.046v-1.486h2.79v10.561zm9.26-10.561h2.949L87.853 30H84.96l2.315-4.978-4.572-9.578h3.292l2.674 6.4 2.744-6.4zm10.174 4.046c-.09-1.349-1.051-2.126-2.423-2.126-1.348 0-2.332.663-2.56 2.126h4.983zm2.835 1.806h-7.887c.16 1.623 1.349 2.56 2.972 2.56 1.509 0 2.56-.845 3.155-1.44l1.417 2.035c-.937.868-2.355 1.897-4.572 1.897-3.452 0-5.692-2.24-5.692-5.6 0-3.361 2.172-5.647 5.486-5.647 3.2 0 5.12 2.035 5.12 5.646v.549zM112 15.124v3.017h-.32c-2.24 0-3.315.96-3.315 3.544v4.32h-2.789V15.444h2.766v2.24h.046c.549-1.646 1.76-2.56 3.498-2.56H112zM3.333 20v6H0V10H3.333v10zM12 15a5 5 0 0 1-5 5h.03L12 26H7.994l-4.66-6 1-.682v-8.636l-1-.682H7a5 5 0 0 1 5 5zm-1.333 0l-1.334-.909v1.819l1.334-.91zm-2.334 1.59v-3.18l-1-.683v4.546l1-.682zm-2 1.365v-5.909l-1-.682v7.272l1-.681z" fill="#C03" fill-rule="evenodd"/></svg>