<svg width="112" height="40" xmlns="http://www.w3.org/2000/svg" xmlns:xlink="http://www.w3.org/1999/xlink"><defs><path id="a" d="M.003.02H51.86V16H.003z"/><path id="c" d="M.008.02h26.656v10.994H.008z"/></defs><g fill="none" fill-rule="evenodd"><path d="M75.024 25.665V15.342h-2.726v1.452h-.045c-.648-1.073-1.765-1.788-3.441-1.788-2.704 0-4.96 1.967-4.96 5.497S66.107 26 68.811 26c1.676 0 2.793-.715 3.441-1.788h.045v1.453h2.726zm-2.726-5.162c0 1.743-1.14 2.905-2.793 2.905-1.654 0-2.793-1.162-2.793-2.905 0-1.743 1.139-2.905 2.793-2.905 1.653 0 2.793 1.162 2.793 2.905zM87.298 25.665V10.023H84.57v6.77h-.044c-.648-1.072-1.765-1.787-3.441-1.787-2.704 0-4.96 1.967-4.96 5.497S78.381 26 81.085 26c1.676 0 2.793-.715 3.44-1.788h.045v1.453h2.727zm-2.727-5.162c0 1.743-1.14 2.905-2.793 2.905-1.653 0-2.793-1.162-2.793-2.905 0-1.743 1.14-2.905 2.793-2.905 1.654 0 2.793 1.162 2.793 2.905zM89.014 12.769h2.748V10.02h-2.748zM89.013 25.665h2.749V15.342h-2.749z" fill="#BA2340"/><g transform="translate(52.38 10)"><mask id="b" fill="#fff"><use xlink:href="#a"/></mask><path d="M51.86 10.503c0-3.24-2.436-5.497-5.72-5.497-3.285 0-5.721 2.257-5.721 5.497 0 3.24 2.436 5.497 5.72 5.497 3.285 0 5.72-2.257 5.72-5.497m-2.837 0c0 1.765-1.207 2.905-2.883 2.905-1.675 0-2.904-1.14-2.904-2.905s1.229-2.905 2.904-2.905c1.676 0 2.883 1.14 2.883 2.905M11.733 4.908c0-2.7-2.188-4.888-4.888-4.888H3.261l.978.667V9.13l-.978.666 4.556 5.865h3.916L6.874 9.795h-.029c2.7 0 4.888-2.188 4.888-4.887zm-5.54 2.888l-.977.666V1.353l.978.667v5.776zM8.15 6.463l-.978.666V2.686l.978.667v3.11zm2.28-1.555l-1.303.89V4.018l1.304.89zM3.262 9.795V.02H.003v15.64h3.258V9.795z" fill="#BA2340" mask="url(#b)"/></g><path d="M45.124 16.081c2.324 0 3.62 1.34 3.799 3.575h-7.776c.245-2.368 1.966-3.575 3.977-3.575m.067-1.095c-3.039 0-5.229 2.056-5.229 5.52 0 3.284 2.078 5.474 5.34 5.474 2.615 0 3.911-1.43 4.67-2.503l-.848-.715c-.715.939-1.72 2.1-3.821 2.1-2.48 0-4.179-1.608-4.201-4.267h9.05v-.246c0-2.838-1.43-5.363-4.961-5.363M40.079 15.008h-.358c-1.765 0-3.061 1.14-3.419 2.682h-.044V15.32H35.14v10.323h1.117v-5.072c0-2.614 1.318-4.268 3.508-4.268h.313v-1.296" fill="#BA2340"/><g transform="translate(7 14.966)"><mask id="d" fill="#fff"><use xlink:href="#c"/></mask><path d="M21.636 1.115c2.324 0 3.62 1.341 3.799 3.576h-7.776c.246-2.369 1.966-3.576 3.977-3.576m.067-1.094c-3.039 0-5.228 2.055-5.228 5.519 0 3.284 2.078 5.474 5.34 5.474 2.614 0 3.91-1.43 4.67-2.502l-.849-.715c-.715.938-1.72 2.1-3.821 2.1-2.48 0-4.178-1.609-4.2-4.268h9.049v-.246c0-2.837-1.43-5.362-4.96-5.362M0 10.679h1.117V5.674c0-3.15 1.252-4.514 3.15-4.514 1.788 0 2.705 1.184 2.705 3.553v5.966h1.117V5.272c0-2.95 1.34-4.112 3.195-4.112 1.72 0 2.66 1.006 2.66 2.994v6.525h1.116V4.154c0-3.06-1.586-4.133-3.53-4.133-1.631 0-2.994.737-3.575 2.457H7.91C7.33.78 6.234.021 4.536.021 2.771.02 1.676.87 1.14 2.389h-.023V.356H0v10.323" fill="#BA2340" mask="url(#d)"/></g></g></svg>