<svg width="112" height="40" 
    xmlns="http://www.w3.org/2000/svg" viewBox="0 0 3307 771.29">
    <defs>
        <style>.cls-1{fill:#cd1943;}</style>
    </defs>
    <title>ButtonAsset 1</title>
    <g id="Layer_2" data-name="Layer 2">
        <g id="kraken">
            <g id="Group_3" data-name="Group 3">
                <g id="CoNF6n.tif">
                    <path class="cls-1" d="M0,.29C2.5.2,5,.05,7.49.05Q107.72,0,208,0C243,0,274,11.37,300.92,33.57c30.57,25.22,48.31,57.83,53,97.1C363.35,209,309.21,281,231.47,294.13c-7,1.18-14.07,1.66-22.09,2.58l145.8,176c-2.55.32-3.92.63-5.28.64-36.5,0-73,0-109.49.07a8.69,8.69,0,0,1-7.58-3.75Q188.94,413,144.91,356.38q-21.15-27.24-42.32-54.45a6.88,6.88,0,0,0-3.48-2.4V465.08c0,8.31,0,8.32-8.13,8.32l-91-.11ZM99.53,1.83v292c7.44-5,14-9.76,21-14,4.78-2.89,6.64-6.37,6.62-12.14q-.3-120-.13-239.91a22.37,22.37,0,0,0-.11-4.49c-.28-1.38-.71-3.19-1.72-3.9C116.91,13.61,108.52,8,99.53,1.83Zm58.93,251.89c2.12-1.38,3.63-2.32,5.09-3.31,6.2-4.22,12.26-8.64,18.62-12.59,3.56-2.21,4.68-4.88,4.66-9-.14-38-.08-75.92-.08-113.88,0-16.31,0-32.63,0-48.95,0-2.8-.37-5.08-3-6.83-7.38-4.82-14.6-9.91-21.91-14.84a22.17,22.17,0,0,0-3.36-1.42ZM217.71,82.5V213.13c2.09-1.3,3.51-2.11,4.85-3,6.07-4.12,12-8.47,18.22-12.31,3.68-2.28,5.1-5,5.07-9.33-.21-24.49-.61-49,.15-73.47.3-9.73-1.87-16.37-10.83-20.92C229.2,91.05,223.91,86.67,217.71,82.5ZM313.78,148,276.6,122.61v50.63Z"/>
                    <path class="cls-1" d="M3307,241.29c-14,.09-27.93.19-41.77,2.89-32.13,6.27-52,25.19-60.07,56.81a173.42,173.42,0,0,0-4.93,42.55c-.11,40.49,0,81,0,121.46,0,1.67,0,3.33-.06,5,0,2.23-1.14,3.38-3.38,3.42-1,0-2,.05-3,.05q-35.23,0-70.47,0c-6.32,0-6.46-.14-6.46-6.44q0-150.19,0-300.41c0-6.25.18-6.43,6.47-6.44q35.25,0,70.48,0c5.94,0,6.22.28,6.23,6.21q0,25.74,0,51.48v5.46c19.38-48.41,54.24-73.47,107-72Z"/>
                    <path class="cls-1" d="M0,590.29c9.66-.09,19.32-.23,29-.24q32.24-.06,64.48,0c9.61,0,8.74-.62,8.79,9,0,3.66,0,7.33,0,11-.07,5.12-.32,5.42-5.37,5.45-11.66.05-23.32,0-35,0-9.83,0-19.66,0-29.49,0-4.95,0-5.11.18-5.13,5q-.07,15,0,30c0,5.5.18,5.68,5.59,5.69,18.83,0,37.65,0,56.48,0,6.89,0,6.9,0,6.92,7,0,4.5,0,9,0,13.5,0,5.37-.31,5.67-5.67,5.68-18.33,0-36.65,0-55,0-9.17,0-8.32-.66-8.33,8.37q0,22.5,0,45c0,6.23,0,6.25,6.45,6.25h64c6,0,6.27.26,6.31,6.12,0,5.16,0,10.33,0,15.49,0,3.11-1.4,4.6-4.53,4.57-4.5,0-9,0-13.5,0H0Z"/>
                    <path class="cls-1" d="M156,771.29c-8-2.15-16.18-3.9-24-6.56-5.79-2-11.24-5-16.69-7.84-1.09-.57-2.44-2.86-2.09-3.65,3.48-7.88,7.3-15.62,11.21-23.78,1.77.84,3.1,1.4,4.37,2.08,11.43,6,23.28,10.61,36.28,12.06a42.7,42.7,0,0,0,19.63-2.21c11.87-4.35,16.84-17.33,10.4-28.24A50.67,50.67,0,0,0,184,700.53c-13.17-11-26.81-21.41-40.09-32.26-16.47-13.45-23-33.72-17.14-52.82,5.07-16.43,17.26-24.94,33.35-28.06,20.53-4,40,.24,58.81,8.82,2.6,1.19,3.48,2.67,2.09,5.46-3.11,6.27-6.07,12.6-9,19-1.2,2.6-2.49,3.47-5.37,1.93-8.6-4.6-17.71-7.79-27.51-8.42a52,52,0,0,0-12.35.46C156,616.54,151.31,626,156.47,635.74A33.74,33.74,0,0,0,165,646c13.22,10.66,26.9,20.76,40.15,31.39,11.09,8.9,19.34,20,21.43,34.41C229.74,733.6,224,753.26,204.1,764c-6.19,3.35-13.37,4.88-20.1,7.25Z"/>
                    <path class="cls-1" d="M971.81,202.69V10.77c0-1.5,0-3,0-4.5C971.87.21,972,.05,978,0q28.26,0,56.5,0c5.34,0,10.67.11,16,0,3.4-.09,5,1.22,4.74,4.68-.09,1.33,0,2.67,0,4v456c0,8.8,0,8.8-8.61,8.81h-68c-6.68,0-6.75-.07-6.76-6.63q0-15.51,0-31v-5.7c-4.49,5.65-8.23,10.66-12.28,15.41-13.95,16.33-31.46,27.45-52.15,32.62-48.94,12.25-94.36,4.69-134.44-27-20-15.81-34-36.41-43.32-60.17-11.48-29.13-14.38-59.49-12.53-90.35,1.56-26,7.67-51.06,20.18-74.18,21.64-40,54.86-64.53,99.46-73.31,27.86-5.48,55.37-4.06,82.06,6.35,20.64,8,37,21.6,49.41,39.86.83,1.22,1.71,2.42,2.56,3.62ZM804,320.41c.64,4.41,1.26,12.76,3.12,20.82,6.28,27.15,21.9,46.8,48.21,57A89.63,89.63,0,0,0,902,403.05c24.76-3.83,44.63-15.43,57.29-37.46,13.16-22.88,15.44-47.53,9.62-73-4.79-21-15.53-38.25-34-49.83-21-13.13-43.88-15.69-67.78-10.65-16.81,3.55-31.12,11.63-42.38,24.72C810,274,804.65,294.42,804,320.41Z"/>
                    <path class="cls-1" d="M1681,431.23V582.8c0,1.66,0,3.33,0,5,0,2.44-1.23,3.69-3.71,3.66-1.34,0-2.67,0-4,0h-68.49c-7.75,0-7.77,0-7.77-7.66V168.89c0-1.66,0-3.33,0-5,0-2.44,1.2-3.71,3.68-3.69l3,0q35.23,0,70.48,0c6.67,0,6.79.12,6.8,6.64,0,10.33,0,20.66,0,31,0,1.59.14,3.17.24,5.43,3.8-4.91,7-9.31,10.47-13.5,15.21-18.4,34.78-30,57.82-35.29,36.84-8.5,72.45-4.76,106.32,12.6,25.87,13.26,45.27,33.11,59,58.6,12.67,23.59,18.66,48.92,20.56,75.55a217.26,217.26,0,0,1-6.2,70.3c-7.31,28.35-20.85,53.31-42.37,73.48-21.14,19.82-46.24,31.8-74.8,36.42-23.32,3.78-46.48,3.09-69.21-3.83a106,106,0,0,1-57.56-41.71c-.86-1.23-1.69-2.48-2.57-3.69C1682.52,431.94,1682.15,431.86,1681,431.23Zm167.71-114.41c-1-7.9-1.28-16-3.09-23.67-6.82-29-23.8-49.4-52.6-58.94a90.13,90.13,0,0,0-38.41-3.84c-24.1,2.59-44.26,12.39-58,32.79-17.92,26.59-19.71,55.69-10.77,85.66,6.64,22.25,21,38.4,42.28,47.87,16.23,7.22,33.33,9,50.84,6.31,22.86-3.48,41.37-14.21,54.49-33.52C1844.21,353.63,1848.37,335.88,1848.72,316.82Z"/>
                    <path class="cls-1" d="M2342.57,430.43c-4.28,5.39-8,10.41-12.09,15.16a99.57,99.57,0,0,1-51.66,32.47c-45.43,11.7-88.36,5.8-127.33-21.14-23.79-16.44-40.23-39-50.85-65.88-11.51-29.11-14.43-59.46-12.56-90.32,1.56-25.84,7.58-50.72,19.91-73.72,21.58-40.24,54.85-64.94,99.61-73.81,27.67-5.49,55-4.11,81.58,6.08,21,8.06,37.61,21.77,50.2,40.39.74,1.09,1.5,2.16,3,4.27.22-2.37.44-3.7.44-5,0-10.83,0-21.66,0-32.49,0-6,.25-6.23,6.17-6.24q35.25,0,70.48,0c6.6,0,6.71.12,6.71,6.71q0,100.71,0,201.43v98c0,7.16,0,7.18-7.22,7.18h-69.48c-6.6,0-6.66-.07-6.67-6.72q0-16.5,0-33C2342.8,432.82,2342.67,431.88,2342.57,430.43ZM2175,319.65c.51,4.22.89,11.41,2.3,18.39,4.71,23.27,16.16,42.17,37.07,54.42,18.26,10.69,38.08,13.61,58.81,10.53,24.81-3.69,44.56-15.57,57.21-37.58,13-22.57,15.2-46.93,9.69-72-4.61-21-15.17-38.4-33.55-50.16-21.18-13.55-44.37-16.17-68.63-11-16.65,3.53-30.81,11.55-42,24.46C2181,273.86,2175.6,294.45,2175,319.65Z"/>
                    <path class="cls-1" d="M600.89,202.52q0-17.73,0-35.45c0-6.85.05-6.89,7.05-6.89q34.75,0,69.5,0c6.73,0,6.81.07,6.81,6.6v300c0,6.66,0,6.7-6.68,6.7h-70c-6.56,0-6.67-.11-6.68-6.74,0-11.82,0-23.65,0-36.68-3.56,4.71-6.36,8.63-9.37,12.37-17.06,21.21-39.44,33.5-65.9,38.45-29.14,5.46-57.83,3.28-85.49-7.53C401,458,374.53,429.86,359,391.13c-7.18-17.92-10.82-36.62-12.39-55.86-2.39-29.45.28-58.29,10-86.2,13.08-37.48,36.72-66.18,72.67-83.88,16.9-8.32,34.92-12.72,53.76-14.33,20.39-1.75,40.25.21,59.61,6.7,22.89,7.66,41.08,21.63,54.67,41.59.84,1.22,1.72,2.41,2.58,3.62Zm.62,114.42c-.93-7.41-1.33-14.94-2.89-22.22-5.73-26.74-20.25-46.83-45.81-57.9-14.33-6.2-29.39-8-44.94-6.47-28.64,2.78-50.83,16-64,41.72-13.85,27.15-14.15,55.53-2.89,83.68,8.87,22.16,25.28,36.78,48.08,44A91.92,91.92,0,0,0,532,403c22.41-3.59,40.77-14,53.75-33C596.69,354,600.78,336.08,601.51,316.94Z"/>
                    <path class="cls-1" d="M1393.51,483.56c-38.25-.19-73.9-9.38-105.51-31.55-36.36-25.52-57.69-60.71-65.16-104.31-5.46-31.83-2.92-63.06,8.58-93.34,13.15-34.64,36.12-61.1,68-79.83,24.43-14.37,51-21.52,79.21-23.63,30.61-2.29,60.28,1.53,88.53,13.44,53.48,22.53,86,62.65,96.92,119.6,7.15,37.33,3.15,73.82-13.58,108.17-20.63,42.34-54.63,69.34-99.3,83.21A188,188,0,0,1,1393.51,483.56ZM1480.27,317c-.49-5.63-.6-11.33-1.53-16.88-4.49-26.72-17.65-47.63-42.13-60.3-19.66-10.17-40.67-12.27-62.21-8.11-26.64,5.15-47.05,19.28-58.89,44.09-10.62,22.25-11.72,45.6-5,69.17,6.49,22.86,20.51,39.77,42,50.07,19.45,9.3,39.9,11.26,60.94,7.13,23.64-4.64,42.15-17,54.59-37.77C1476.76,349.83,1480.18,333.83,1480.27,317Z"/>
                    <path class="cls-1" d="M3074.32,427.5c-9.47,7.48-18.1,14.79-27.21,21.43a175.57,175.57,0,0,1-84.67,33.17c-37.83,4.32-74.6.08-109-17.13-38.75-19.38-64.33-50.4-76.13-91.89-12.74-44.81-11-89.37,7.44-132.54a141.27,141.27,0,0,1,61.83-69.16c21.83-12.35,45.42-18.58,70.38-20.49,25.95-2,51.26.52,75.74,9.38,34.73,12.56,59.26,36.28,74.46,69.73,10.34,22.75,15.1,46.82,16.1,71.69.32,8,.63,16,.74,23.94.13,8.84,0,8.85-8.57,8.85H2859.94c-10.81,0-9.22-.11-7.36,9.37,6.71,34.06,32,57.91,66.31,63.32,36.14,5.71,67.84-4.36,96.14-26.66,5.47-4.31,10.59-9.07,16.57-14.22C3045.74,386.55,3059.67,406.52,3074.32,427.5Zm-221-147.77c2.59.11,4.68.29,6.78.29q65.72,0,131.41,0c1.17,0,2.33-.06,3.5,0,2.79.14,4-1,3.57-3.9-3.44-24-14.9-42.27-38-51.63-21.27-8.63-43-8.18-64.49-.89a59,59,0,0,0-29.29,21.6C2859.45,255.37,2855.21,266.71,2853.34,279.73Z"/>
                    <path class="cls-1" d="M2786.79,160.87c-2.05,4.8-3.74,8.91-5.56,13q-34.91,78-69.84,156-32.43,72.52-64.77,145.09-25.17,56.34-50.39,112.66c-1.15,2.59-2.58,4-5.57,4-26.16-.06-52.32,0-78.48-.06a25.84,25.84,0,0,1-3.85-.65c.6-1.7,1-3.11,1.57-4.4q24.55-52.77,49.16-105.53c5.13-11,10.12-22.11,15.33-33.1a8.52,8.52,0,0,0-.13-8Q2548.43,385.9,2522.77,332q-37.89-79.37-75.79-158.73c-1.85-3.87-3.52-7.83-5.59-12.44a38.8,38.8,0,0,1,4.67-.6c29.49,0,59,0,88.47-.1,3.83,0,5.61,1.54,7,4.87,11.42,27.54,23,55,34.48,82.53q19.56,46.8,39.08,93.61c.76,1.8,1.63,3.56,2.79,6.07a31.83,31.83,0,0,0,2.39-3.79q28.84-67.27,57.64-134.57,9.45-22,18.84-44.11c1.22-2.88,2.81-4.59,6.27-4.58,26.66.1,53.32.05,80,.08A27.72,27.72,0,0,1,2786.79,160.87Z"/>
                    <path class="cls-1" d="M1969.81,236.84V9.43c0-1.66.09-3.33,0-5-.16-3.2,1.3-4.43,4.48-4.42q37.73.09,75.47,0c3.21,0,4.6,1.3,4.43,4.46-.08,1.33,0,2.67,0,4V464.8c0,8.67,0,8.68-8.73,8.68h-69c-6.6,0-6.67-.07-6.67-6.72Q1969.8,351.79,1969.81,236.84Z"/>
                    <path class="cls-1" d="M1105.89,316.78V169.29c0-1.5.09-3,0-4.5-.22-3.51,1.53-4.77,4.84-4.63,3,.12,6,0,9,0q32,0,64,0c6.28,0,6.46.19,6.46,6.46q0,150.24,0,300.49c0,6.18-.17,6.33-6.56,6.34h-71c-6.62,0-6.73-.11-6.74-6.69Q1105.88,391.78,1105.89,316.78Z"/>
                    <path class="cls-1" d="M573.11,638.86v5.89q0,58.21,0,116.45c0,7-.08,7.07-6.85,7.09-4.67,0-9.33,0-14,0-6.3,0-6.5-.22-6.5-6.4q0-38.49,0-77,0-44,0-88c0-6.89,0-6.89,6.92-6.91,5.16,0,10.35.32,15.48-.1,4.68-.38,7.25,1.64,9.67,5.35q31.39,48.15,63,96.11,8.64,13.17,17.28,26.32a5.14,5.14,0,0,0,2.61,2.11V597.13c0-7.07,0-7.08,7.24-7.09,4.84,0,9.67,0,14.5,0,5.27.05,5.52.34,5.62,5.77,0,.83,0,1.67,0,2.5V760.25c0,1.5,0,3-.05,4.5,0,2.23-1.14,3.45-3.36,3.46-7.49,0-15,.39-22.46-.25-2.2-.19-4.68-2.92-6.12-5.09-10.74-16.06-21.24-32.28-31.84-48.44Q600.84,678.72,577.33,643c-1-1.52-2.07-3-3.1-4.46Z"/>
                    <path class="cls-1" d="M533,767.85c-2.57.2-4.17.42-5.77.43-5.83,0-11.67,0-17.5,0-6.78,0-6.72,0-9.22-6.61-4.08-10.75-8.41-21.4-12.29-32.22-1.43-4-3.67-5.26-7.77-5.23q-32.75.22-65.49,0c-4.19,0-6.25,1.39-7.66,5.33-3.92,11-8.25,21.81-12.42,32.7-2.23,5.81-2.52,6-8.71,6-7.45,0-14.91,0-23.36,0,1.09-3.27,1.71-5.58,2.61-7.79q22.65-55.53,45.36-111,10.88-26.61,21.72-53.22c2.54-6.21,2.54-6.22,9.47-6.22,4.5,0,9,.19,13.49-.06,3.74-.21,5.63,1.24,7,4.74,10.38,25.81,21,51.54,31.49,77.3q18.06,44.18,36.12,88.36C531,762.51,531.79,764.67,533,767.85Zm-57.1-70c-9.38-24.27-18.49-47.84-27.59-71.41l-1.14.16-27.5,71.25Z"/>
                    <path class="cls-1" d="M870.83,767.77c-2.76.23-4.53.49-6.3.51-5.83.05-11.68-.26-17.49.1-4.67.3-6.84-1.67-8.36-5.9-3.94-11-8.47-21.72-12.37-32.7-1.48-4.17-3.69-5.6-8-5.56q-32.73.25-65.47,0c-3.93,0-6,1.2-7.39,5-4.23,11.57-8.9,23-13.2,34.53-1.24,3.33-3.17,4.7-6.69,4.62-6.49-.16-13,0-19.49-.07-1.45,0-2.89-.29-5-.53.68-2.32,1.06-4.21,1.78-6q27.47-67.31,55-134.57c4.41-10.79,9-21.51,13.19-32.38,1.45-3.75,3.57-5.1,7.49-4.86a116.6,116.6,0,0,0,14.48,0c3.91-.24,6,1.11,7.51,4.83,5.94,15,12.14,29.94,18.26,44.89q24.87,60.8,49.75,121.59C869.19,763.09,869.8,765,870.83,767.77ZM786.29,626.55l-1.17,0c-9.13,23.61-18.26,47.21-27.52,71.19h56.23C804.46,673.55,795.38,650.05,786.29,626.55Z"/>
                    <path class="cls-1" d="M247.75,679.29q0-41.25,0-82.49c0-6.72,0-6.75,6.58-6.76,19.16,0,38.33-.11,57.49,0,34.68.23,55.8,27.35,51.88,61.52-1.36,11.91-5.7,22.46-14.28,31.18-10.88,11.07-24.49,15-39.39,15.57-9.82.34-19.66,0-29.49.08-5.13,0-5.4.28-5.41,5.38,0,19.34,0,38.67,0,58,0,6.26-.23,6.47-6.44,6.5-5,0-10,.05-15,0-5.62-.06-5.91-.34-5.91-6Q247.73,720.79,247.75,679.29Zm45.84-7.14c4.16,0,8.32.07,12.48,0,17.16-.3,26.93-8.68,28.38-25.76,1.24-14.78-5.3-27.71-22.63-29.8-11-1.32-22.23-.73-33.36-1-2.7-.07-3.34,1.56-3.34,3.86,0,16.15.05,32.29,0,48.43,0,3.29,1.4,4.42,4.52,4.34C284.27,672.07,288.93,672.16,293.59,672.15Z"/>
                    <path class="cls-1" d="M1148.5,84.3c-12.16,0-24.33,0-36.49,0-5.77,0-6.1-.32-6.11-5.82q0-36.26,0-72.49c0-5.62.33-5.93,5.95-5.93q36.24,0,72.49,0c5.61,0,5.83.24,5.84,6q0,36.24,0,72.49c0,5.35-.36,5.71-5.68,5.73C1172.5,84.33,1160.5,84.29,1148.5,84.3Z"/>
                    <path class="cls-1" d="M631.79,586.33c-4.34-1.51-8.73-2.87-13-4.57-3.08-1.23-5.91-3.06-9-4.37-5.63-2.41-8.39-1-10.22,4.64-.56,1.76-1.48,4.55-2.61,4.75a32,32,0,0,1-9.81-.24c-.59-.07-1.47-2.31-1.26-3.37.95-4.84,1.44-10,3.58-14.33,4-8,12.69-10.74,21.4-7.4,3.72,1.42,7.18,3.49,10.79,5.16a41.09,41.09,0,0,0,6.46,2.59c4.4,1.2,6.31,0,8.06-4.3.69-1.68,1.74-4.24,3-4.47,3-.57,6.24-.12,9.35.22.52.06,1.29,1.62,1.24,2.44-.38,6.35-1,12.67-5.59,17.69C641,584.34,636.84,585.73,631.79,586.33Z"/>
                </g>
            </g>
        </g>
    </g>
</svg>